# File created by Blade
# Date/Time:  Wed Jan 21 19:03:17 2015
#---------------------------------------------------------
:version 1.10
:name HOM
:units
  mass 1.0
  length 1.000000
  angle deg
:documentation
     Acclaim Skeleton File
:root
   axis xyz
   order TX TY TZ RX RY RZ
   position 0.000000 0.000000 0.000000
   orientation 0 0 0
:bonedata
   begin
      id 1
      name RightUpLeg_dum
      direction -1.000000 0.000000 0.000000
      length 3.693983
      axis 0.0 0.0 0.0 xyz
   end
   begin
      id 2
      name LeftUpLeg_dum
      direction 1.000000 0.000000 0.000000
      length 3.693983
      axis 0.0 0.0 0.0 xyz
   end
   begin
      id 3
      name Spine_dum
      direction 0.000000 1.000000 0.000000
      length 2.392956
      axis 0.0 0.0 0.0 xyz
   end
   begin
      id 4
      name RightUpLeg
      direction 0.000000 -1.000000 0.000000
      length 15.795667
      axis 0.0 0.0 0.0 xyz
      dof rx ry rz
   end
   begin
      id 5
      name RightLeg
      direction 0.000000 -1.000000 0.000000
      length 14.766989
      axis 0.0 0.0 0.0 xyz
      dof rx ry rz
   end
   begin
      id 6
      name RightFoot
      direction 0.000000 -0.258819 0.965926
      length 4.962790
      axis 15.0 0.0 0.0 xyz
      dof rx ry rz
   end
   begin
      id 7
      name RightToeBase
      direction 0.000000 0.000000 1.000000
      length 2.952750
      axis 0.0 0.0 0.0 xyz
      dof rx ry rz
   end
   begin
      id 8
      name LeftUpLeg
      direction 0.000000 -1.000000 0.000000
      length 15.795667
      axis 0.0 0.0 0.0 xyz
      dof rx ry rz
   end
   begin
      id 9
      name LeftLeg
      direction 0.000000 -1.000000 0.000000
      length 14.766989
      axis 0.0 0.0 0.0 xyz
      dof rx ry rz
   end
   begin
      id 10
      name LeftFoot
      direction 0.000000 -0.258819 0.965926
      length 4.962790
      axis 15.0 0.0 0.0 xyz
      dof rx ry rz
   end
   begin
      id 11
      name LeftToeBase
      direction 0.000000 0.000000 1.000000
      length 2.952750
      axis 0.0 0.0 0.0 xyz
      dof rx ry rz
   end
   begin
      id 12
      name Spine
      direction 0.000000 1.000000 0.000000
      length 0.000000
      axis 0.0 0.0 0.0 xyz
      dof rx ry rz
   end
   begin
      id 13
      name Spine_dum1
      direction 0.000000 1.000000 0.000000
      length 13.207411
      axis 0.0 0.0 0.0 xyz
   end
   begin
      id 14
      name Spine_dum2
      direction 0.000000 1.000000 0.000000
      length 13.207411
      axis 0.0 0.0 0.0 xyz
   end
   begin
      id 15
      name Spine_dum3
      direction 0.000000 1.000000 0.000000
      length 19.250100
      axis 0.0 0.0 0.0 xyz
   end
   begin
      id 16
      name RightShoulder
      direction -1.000000 0.000000 0.000000
      length 8.140465
      axis 0.0 0.0 90.0 xyz
      dof rx ry rz
   end
   begin
      id 17
      name RightArm
      direction -1.000000 0.000000 0.000000
      length 10.649840
      axis 0.0 0.0 90.0 xyz
      dof rx ry rz
   end
   begin
      id 18
      name RightForeArm
      direction -1.000000 0.000000 0.000000
      length 8.304624
      axis 0.0 0.0 90.0 xyz
      dof ry rz rx
   end
   begin
      id 19
      name RightHand
      direction -1.000000 0.000000 0.000000
      length 0.000000
      axis 0.0 0.0 90.0 xyz
      dof rx ry rz
   end
   begin
      id 20
      name RightHand_dum1
      direction -1.000000 0.000000 0.000000
      length 3.937000
      axis 0.0 0.0 90.0 xyz
   end
   begin
      id 21
      name RightHand_dum2
      direction 0.000000 0.000000 0.000000
      length 0.000000
      axis 0.0 0.0 90.0 xyz
   end
   begin
      id 22
      name RightHandThumb1
      direction 0.000000 0.000000 1.000000
      length 3.937000
      axis 0.0 0.0 90.0 xyz
      dof rx rz ry
   end
   begin
      id 23
      name LeftShoulder
      direction 1.000000 0.000000 0.000000
      length 8.140465
      axis 0.0 0.0 -90.0 xyz
      dof rx ry rz
   end
   begin
      id 24
      name LeftArm
      direction 1.000000 0.000000 0.000000
      length 10.649840
      axis 0.0 0.0 -90.0 xyz
      dof rx ry rz
   end
   begin
      id 25
      name LeftForeArm
      direction 1.000000 0.000000 0.000000
      length 8.304624
      axis 0.0 0.0 -90.0 xyz
      dof ry rz rx
   end
   begin
      id 26
      name LeftHand
      direction 1.000000 0.000000 0.000000
      length 0.000000
      axis 0.0 0.0 -90.0 xyz
      dof rx ry rz
   end
   begin
      id 27
      name LeftHand_dum1
      direction 1.000000 0.000000 0.000000
      length 3.937000
      axis 0.0 0.0 -90.0 xyz
   end
   begin
      id 28
      name LeftHand_dum2
      direction 0.000000 0.000000 0.000000
      length 0.000000
      axis 0.0 0.0 -90.0 xyz
   end
   begin
      id 29
      name LeftHandThumb1
      direction 0.000000 0.000000 1.000000
      length 3.937000
      axis 0.0 0.0 -90.0 xyz
      dof rx rz ry
   end
   begin
      id 30
      name Head
      direction 0.000000 1.000000 0.000000
      length 4.527550
      axis 0.0 0.0 0.0 xyz
      dof rx ry rz
   end
:hierarchy
   begin
      root RightUpLeg_dum LeftUpLeg_dum Spine_dum
      RightUpLeg_dum RightUpLeg
      LeftUpLeg_dum LeftUpLeg
      Spine_dum Spine
      RightUpLeg RightLeg
      RightLeg RightFoot
      RightFoot RightToeBase
      LeftUpLeg LeftLeg
      LeftLeg LeftFoot
      LeftFoot LeftToeBase
      Spine Spine_dum1 Spine_dum2 Spine_dum3
      Spine_dum1 RightShoulder
      Spine_dum2 LeftShoulder
      Spine_dum3 Head
      RightShoulder RightArm
      RightArm RightForeArm
      RightForeArm RightHand
      RightHand RightHand_dum1 RightHand_dum2
      RightHand_dum2 RightHandThumb1
      LeftShoulder LeftArm
      LeftArm LeftForeArm
      LeftForeArm LeftHand
      LeftHand LeftHand_dum1 LeftHand_dum2
      LeftHand_dum2 LeftHandThumb1
   end

# File created by Blade
# Date/Time:  Wed Jan 21 19:03:07 2015
# Frame Rate: 120.000 fps
#------------------------------------------------------
:FULLY-SPECIFIED
:DEGREES
1268
root -3.766715 30.205800 -9.621277 122.634638 -10.832799 7.836714
RightUpLeg -130.244867 -29.527442 14.724875
RightLeg -4.977008 -0.000000 0.000000
RightFoot -5.059161 -12.292237 40.257035
RightToeBase 21.713013 -0.000000 -0.000000
LeftUpLeg -121.121828 6.133849 -18.804768
LeftLeg -3.009064 -0.000000 0.000000
LeftFoot 2.866145 0.828861 -20.978696
LeftToeBase 5.557290 -0.000000 -0.000000
Spine 24.709857 -17.362030 2.831151
RightShoulder 5.082307 38.335410 -47.015665
RightArm 31.198143 11.922016 114.661367
RightForeArm 14.218306 -0.000000 50.939604
RightHand 27.911807 -0.000000 -51.784150
RightHandThumb1 -24.326973 -0.000000 -32.862282
LeftShoulder 9.433435 43.801391 9.297750
LeftArm 117.614987 -18.256167 -90.819738
LeftForeArm 14.095866 0.000000 61.307037
LeftHand -31.949047 -0.000000 60.469983
LeftHandThumb1 -26.253704 0.000000 33.147579
Head -31.023936 6.523352 -26.201709
1269
root -3.765287 30.208123 -9.574770 122.621431 -10.817379 7.824332
RightUpLeg -130.097825 -29.536863 14.711412
RightLeg -5.048590 -0.000000 0.000000
RightFoot -5.092461 -12.234406 40.464044
RightToeBase 21.659122 -0.000000 -0.000000
LeftUpLeg -121.019226 6.039272 -18.970817
LeftLeg -3.072310 -0.000000 0.000000
LeftFoot 2.906228 0.646954 -20.895344
LeftToeBase 5.480667 -0.000000 -0.000000
Spine 25.080535 -17.211941 2.942185
RightShoulder 5.425394 38.620486 -46.565338
RightArm 31.188915 12.504664 114.593335
RightForeArm 13.808691 -0.000000 51.459737
RightHand 28.038027 -0.000000 -52.058450
RightHandThumb1 -24.326973 -0.000000 -32.862282
LeftShoulder 9.573891 43.590573 9.292464
LeftArm 117.917261 -18.580370 -90.577908
LeftForeArm 14.436816 -0.000000 61.258074
LeftHand -31.935592 -0.000000 60.492093
LeftHandThumb1 -26.253704 0.000000 33.147579
Head -31.318115 6.142092 -26.205513
1270
root -3.762241 30.211016 -9.526550 122.590700 -10.815641 7.820835
RightUpLeg -129.888243 -29.585293 14.646839
RightLeg -5.183495 -0.000000 0.000000
RightFoot -5.136198 -12.352249 40.379343
RightToeBase 21.772001 -0.000000 -0.000000
LeftUpLeg -120.880172 5.947554 -19.116719
LeftLeg -3.151132 -0.000000 0.000000
LeftFoot 2.938987 0.485198 -20.786063
LeftToeBase 5.457403 -0.000000 -0.000000
Spine 25.516327 -17.027265 3.041849
RightShoulder 5.551633 38.878219 -46.129990
RightArm 31.211576 12.979700 114.504753
RightForeArm 13.186499 -0.000000 51.900975
RightHand 28.573088 0.000000 -52.060143
RightHandThumb1 -24.326973 -0.000000 -32.862282
LeftShoulder 9.704812 43.247175 9.367507
LeftArm 118.121874 -18.824300 -90.307746
LeftForeArm 14.470826 0.000000 61.213329
LeftHand -32.061670 0.000000 60.654112
LeftHandThumb1 -26.253704 0.000000 33.147579
Head -31.777763 5.622839 -26.122461
1271
root -3.763164 30.212220 -9.478005 122.545580 -10.800827 7.820335
RightUpLeg -129.704609 -29.557682 14.669658
RightLeg -5.310451 -0.000000 0.000000
RightFoot -5.140634 -12.347771 40.395402
RightToeBase 21.801923 -0.000000 -0.000000
LeftUpLeg -120.721092 5.906119 -19.204610
LeftLeg -3.241704 -0.000000 0.000000
LeftFoot 2.969393 0.376538 -20.749304
LeftToeBase 5.404460 -0.000000 -0.000000
Spine 25.944022 -16.839163 3.146842
RightShoulder 5.896483 39.159141 -45.616773
RightArm 31.205360 13.704318 114.568912
RightForeArm 12.200700 -0.000000 52.664386
RightHand 28.520565 -0.000000 -52.228517
RightHandThumb1 -24.326973 -0.000000 -32.862282
LeftShoulder 9.936529 42.946644 9.527751
LeftArm 118.332128 -19.149539 -90.056448
LeftForeArm 14.242612 -0.000000 61.128265
LeftHand -32.128308 -0.000000 61.201632
LeftHandThumb1 -26.253704 0.000000 33.147579
Head -32.102288 5.208406 -26.024041
1272
root -3.766407 30.213483 -9.427965 122.505910 -10.802303 7.798558
RightUpLeg -129.558194 -29.482028 14.714654
RightLeg -5.406240 -0.000000 0.000000
RightFoot -5.100244 -12.291861 40.394243
RightToeBase 21.755934 -0.000000 -0.000000
LeftUpLeg -120.554019 5.885947 -19.308098
LeftLeg -3.342680 -0.000000 0.000000
LeftFoot 3.002530 0.266330 -20.657660
LeftToeBase 5.327834 -0.000000 -0.000000
Spine 26.413514 -16.636572 3.211382
RightShoulder 6.089179 39.404164 -45.173061
RightArm 31.239037 14.260705 114.532774
RightForeArm 11.270483 -0.000000 53.345413
RightHand 28.777174 -0.000000 -52.333409
RightHandThumb1 -24.326973 -0.000000 -32.862282
LeftShoulder 10.071789 42.584400 9.657225
LeftArm 118.512452 -19.306322 -89.852243
LeftForeArm 14.137555 0.000000 61.031995
LeftHand -32.212719 -0.000000 61.546716
LeftHandThumb1 -26.253704 0.000000 33.147579
Head -32.518169 4.773039 -25.935084
1273
root -3.768748 30.214911 -9.378342 122.452686 -10.802351 7.792311
RightUpLeg -129.412322 -29.395972 14.800046
RightLeg -5.523020 -0.000000 0.000000
RightFoot -5.026720 -12.189213 40.454074
RightToeBase 21.710074 -0.000000 -0.000000
LeftUpLeg -120.381768 5.876890 -19.367798
LeftLeg -3.420461 -0.000000 0.000000
LeftFoot 3.024001 0.182481 -20.591483
LeftToeBase 5.214370 -0.000000 -0.000000
Spine 26.893784 -16.468765 3.300432
RightShoulder 6.273886 39.622819 -44.757966
RightArm 31.378105 14.801101 114.548808
RightForeArm 10.277318 -0.000000 54.004102
RightHand 29.157971 -0.000000 -52.732362
RightHandThumb1 -24.326973 -0.000000 -32.862282
LeftShoulder 10.164734 42.288564 9.695332
LeftArm 118.832759 -19.553228 -89.566884
LeftForeArm 14.203266 0.000000 60.788648
LeftHand -32.324160 -0.000000 62.039190
LeftHandThumb1 -26.253704 0.000000 33.147579
Head -32.958193 4.279672 -25.896965
1274
root -3.771665 30.214501 -9.326574 122.419955 -10.804916 7.784597
RightUpLeg -129.271000 -29.348799 14.859595
RightLeg -5.618312 -0.000000 0.000000
RightFoot -4.995161 -12.108635 40.366596
RightToeBase 21.784155 -0.000000 -0.000000
LeftUpLeg -120.221435 5.870913 -19.420927
LeftLeg -3.504207 -0.000000 0.000000
LeftFoot 3.001852 0.125154 -20.595457
LeftToeBase 5.248544 -0.000000 -0.000000
Spine 27.366304 -16.359599 3.370455
RightShoulder 6.397012 39.990886 -44.443792
RightArm 31.311807 15.217225 114.396351
RightForeArm 9.561984 -0.000000 54.712326
RightHand 29.373153 -0.000000 -52.694038
RightHandThumb1 -24.326973 -0.000000 -32.862282
LeftShoulder 10.195849 41.975348 9.671384
LeftArm 119.073051 -19.866615 -89.238484
LeftForeArm 14.421410 -0.000000 60.634793
LeftHand -32.508861 -0.000000 62.462818
LeftHandThumb1 -26.253704 0.000000 33.147579
Head -33.379479 3.900671 -25.880723
1275
root -3.774902 30.214017 -9.275717 122.389179 -10.795832 7.787324
RightUpLeg -129.143837 -29.257115 14.986902
RightLeg -5.756993 -0.000000 0.000000
RightFoot -4.907660 -11.993007 40.318824
RightToeBase 21.783727 -0.000000 -0.000000
LeftUpLeg -120.080134 5.852561 -19.476376
LeftLeg -3.571707 -0.000000 0.000000
LeftFoot 2.933995 0.094094 -20.733692
LeftToeBase 5.461022 -0.000000 -0.000000
Spine 27.834035 -16.201457 3.473265
RightShoulder 6.534420 40.202854 -44.174307
RightArm 31.366412 15.695831 114.339024
RightForeArm 8.677613 0.000000 55.574486
RightHand 29.741915 -0.000000 -52.579663
RightHandThumb1 -24.326973 -0.000000 -32.862282
LeftShoulder 10.341643 41.618667 9.804656
LeftArm 119.234498 -20.154025 -88.976663
LeftForeArm 14.713576 -0.000000 60.562324
LeftHand -32.667726 -0.000000 62.865342
LeftHandThumb1 -26.253704 0.000000 33.147579
Head -33.804011 3.441774 -25.851603
1276
root -3.782045 30.213419 -9.223083 122.355982 -10.814920 7.761586
RightUpLeg -128.998734 -29.144585 15.070414
RightLeg -5.907734 -0.000000 0.000000
RightFoot -4.820215 -11.866447 40.287066
RightToeBase 21.811187 -0.000000 -0.000000
LeftUpLeg -119.938909 5.849122 -19.587729
LeftLeg -3.617827 -0.000000 0.000000
LeftFoot 2.921308 -0.010065 -20.763249
LeftToeBase 5.487928 -0.000000 -0.000000
Spine 28.331338 -16.066558 3.496843
RightShoulder 6.589893 40.542092 -43.933231
RightArm 31.361004 16.105026 114.218418
RightForeArm 8.021299 -0.000000 56.299029
RightHand 30.161234 -0.000000 -52.506184
RightHandThumb1 -24.326973 -0.000000 -32.862282
LeftShoulder 10.432182 41.288994 9.820509
LeftArm 119.466179 -20.574890 -88.622591
LeftForeArm 14.853887 -0.000000 60.451147
LeftHand -32.910419 0.000000 63.438796
LeftHandThumb1 -26.253704 0.000000 33.147579
Head -34.209983 3.134671 -25.793409
1277
root -3.789268 30.210639 -9.172202 122.351300 -10.833668 7.749213
RightUpLeg -128.879891 -29.056956 15.157661
RightLeg -6.066955 -0.000000 0.000000
RightFoot -4.742067 -11.757421 40.269887
RightToeBase 21.781997 -0.000000 -0.000000
LeftUpLeg -119.827076 5.838197 -19.675360
LeftLeg -3.655896 -0.000000 0.000000
LeftFoot 2.898507 -0.100522 -20.774329
LeftToeBase 5.418941 -0.000000 -0.000000
Spine 28.775004 -15.997060 3.541385
RightShoulder 6.804981 40.884287 -43.724736
RightArm 31.329928 16.675831 114.257934
RightForeArm 7.253690 -0.000000 57.279619
RightHand 30.257883 -0.000000 -52.417687
RightHandThumb1 -24.326973 -0.000000 -32.862282
LeftShoulder 10.513825 40.993946 9.811789
LeftArm 119.655413 -21.034910 -88.338862
LeftForeArm 15.020309 -0.000000 60.422812
LeftHand -33.116655 -0.000000 63.903731
LeftHandThumb1 -26.253704 0.000000 33.147579
Head -34.580758 2.834742 -25.850408
1278
root -3.795285 30.209471 -9.121533 122.341011 -10.827656 7.749078
RightUpLeg -128.757663 -28.956674 15.289405
RightLeg -6.232004 -0.000000 0.000000
RightFoot -4.660565 -11.627616 40.260125
RightToeBase 21.801890 -0.000000 -0.000000
LeftUpLeg -119.717259 5.840242 -19.709606
LeftLeg -3.685843 -0.000000 0.000000
LeftFoot 2.874284 -0.162478 -20.767351
LeftToeBase 5.385736 -0.000000 -0.000000
Spine 29.241488 -15.952730 3.599839
RightShoulder 6.920359 41.234065 -43.534827
RightArm 31.379028 17.070201 114.216821
RightForeArm 6.665696 -0.000000 58.105707
RightHand 30.234053 -0.000000 -52.739134
RightHandThumb1 -24.326973 -0.000000 -32.862282
LeftShoulder 10.531034 40.667814 9.759767
LeftArm 119.833249 -21.507736 -88.033463
LeftForeArm 15.028283 -0.000000 60.435164
LeftHand -33.457266 0.000000 64.523778
LeftHandThumb1 -26.253704 0.000000 33.147579
Head -34.991557 2.508531 -25.853764
1279
root -3.805578 30.208183 -9.069638 122.298978 -10.835267 7.740236
RightUpLeg -128.513777 -28.979129 15.249539
RightLeg -6.430732 -0.000000 0.000000
RightFoot -4.633756 -11.587935 40.292342
RightToeBase 21.806397 -0.000000 -0.000000
LeftUpLeg -119.573127 5.854736 -19.772787
LeftLeg -3.721201 -0.000000 0.000000
LeftFoot 2.859060 -0.240055 -20.814164
LeftToeBase 5.395978 -0.000000 -0.000000
Spine 29.729821 -15.873832 3.608359
RightShoulder 7.090745 41.469650 -43.308897
RightArm 31.466566 17.453697 114.110895
RightForeArm 6.266761 -0.000000 58.978876
RightHand 30.293143 -0.000000 -52.942483
RightHandThumb1 -24.326973 -0.000000 -32.862282
LeftShoulder 10.715089 40.460947 9.715870
LeftArm 120.151267 -22.126477 -87.770063
LeftForeArm 14.963350 -0.000000 60.488256
LeftHand -33.586834 -0.000000 64.998170
LeftHandThumb1 -26.253704 0.000000 33.147579
Head -35.266779 2.329442 -25.791240
